<svg id="Layer_1" data-name="Layer 1" xmlns="http://www.w3.org/2000/svg" viewBox="0 0 100.03 101.89"><defs><style>.cls-1{fill:#a6ce39;fill-rule:evenodd;}</style></defs><title>circle</title><path class="cls-1" d="M45.51.15C76.81-1.69,99.22,13.1,100,43.43c.62,24.07-15.45,48.66-35.27,56.11C41,108.47,6.16,90.75,1.43,65.88-.8,54.24-.53,36.43,3,25.8c1.55-4.62,11.21-18.45,16-21.65C25.75-.26,35.14.77,45.51.15ZM35.89,7.36C14.95,11.68,1.19,50,12.65,73.09c5,10.07,19.22,19.3,32.86,20C80.59,95,105.64,49.75,84,21.8,75.81,11.25,61,6.74,47.11,7.36,43.38,7.53,38.61,6.8,35.89,7.36Z"/></svg>