<svg id="Layer_1" data-name="Layer 1" xmlns="http://www.w3.org/2000/svg" viewBox="0 0 100.03 101.89"><defs><style>.cls-1{fill:#a6ce39;fill-rule:evenodd;}</style></defs><title>smiley</title><path class="cls-1" d="M52.71,21.8c-.69,8.58,11.83,8,9.63-1.6C58.9,16.85,55.43,20,52.71,21.8ZM25.47,30.61c5.39,1.75,7.41-1.38,8-6.41C29.7,19.4,22.16,24.23,25.47,30.61ZM19.06,37c5.52,1,6.38,6.45,11.22,8.82C45,53.05,66.18,45.25,73.56,33c.94-.13,1.42.18,1.61.79,9.79,7.4,4.55,27.18,0,36.08-13.87,14.4-41.47,14.22-54.51-.8C18.21,59.65,9.22,44.61,19.06,37Zm1.6,8.82C16,82.07,69.89,85.38,75.17,56.25c-1.84-5.4,1.52-11.36-2.4-15.22C61.93,55.57,35.74,56.57,20.66,45.84Z"/></svg>